<?xml version="1.0" encoding="UTF-8" standalone="no"?><svg xmlns="http://www.w3.org/2000/svg" xmlns:xlink="http://www.w3.org/1999/xlink" fill="#ff3131" height="322.8" preserveAspectRatio="xMidYMid meet" version="1" viewBox="71.3 38.6 257.5 322.8" width="257.5" zoomAndPan="magnify"><g id="change1_1"><path d="M 176.105469 233.203125 C 175.863281 233.011719 175.621094 232.816406 175.378906 232.625 C 174.507812 233.703125 173.636719 234.777344 172.765625 235.855469 C 173.035156 236.066406 173.300781 236.277344 173.566406 236.488281 C 174.414062 235.394531 175.261719 234.296875 176.105469 233.203125 Z M 260.019531 156.292969 C 259.753906 156.046875 259.488281 155.800781 259.222656 155.554688 C 258.394531 156.445312 257.566406 157.339844 256.738281 158.230469 C 257.007812 158.480469 257.277344 158.730469 257.550781 158.980469 C 258.371094 158.085938 259.195312 157.1875 260.019531 156.292969 Z M 251.9375 166.191406 C 251.644531 165.945312 251.351562 165.695312 251.058594 165.449219 C 250.199219 166.464844 249.34375 167.480469 248.484375 168.496094 C 248.789062 168.753906 249.09375 169.007812 249.398438 169.261719 C 250.246094 168.238281 251.09375 167.214844 251.9375 166.191406 Z M 245.277344 174.242188 C 244.902344 173.871094 244.523438 173.5 244.144531 173.125 C 243.039062 174.511719 241.9375 175.898438 240.828125 177.28125 C 241.140625 177.542969 241.445312 177.804688 241.757812 178.066406 C 242.929688 176.792969 244.105469 175.515625 245.277344 174.242188 Z M 141.4375 97.207031 C 141.867188 97.105469 142.300781 97.003906 142.730469 96.902344 C 142.472656 95.785156 142.210938 94.664062 141.953125 93.546875 C 141.539062 93.644531 141.128906 93.742188 140.71875 93.839844 C 140.957031 94.960938 141.195312 96.085938 141.4375 97.207031 Z M 159.410156 254.230469 C 162.992188 252.832031 165.21875 250.726562 164.8125 245.304688 C 162.410156 249.269531 160.910156 251.75 159.410156 254.230469 Z M 261.597656 106.777344 C 261.972656 107.097656 262.351562 107.421875 262.726562 107.742188 C 264.828125 104.890625 266.925781 102.035156 269.027344 99.179688 C 268.433594 98.789062 267.835938 98.394531 267.242188 98.003906 C 265.359375 100.929688 263.476562 103.851562 261.597656 106.777344 Z M 161.710938 236.960938 C 161.203125 236.671875 160.695312 236.386719 160.1875 236.097656 C 156.621094 239.898438 153.601562 244.050781 152.667969 249.558594 C 155.683594 245.359375 158.695312 241.160156 161.710938 236.960938 Z M 178.867188 120.867188 C 181.949219 135.851562 186.167969 150.277344 195.78125 162.523438 C 190.144531 148.636719 184.503906 134.753906 178.867188 120.867188 Z M 218.269531 264.222656 C 218.878906 263.933594 219.484375 263.640625 220.089844 263.351562 C 215.460938 252.316406 210.832031 241.28125 206.167969 230.160156 C 201.515625 232.296875 202.585938 235.527344 203.761719 237.804688 C 208.375 246.726562 213.398438 255.433594 218.269531 264.222656 Z M 171.898438 197.734375 C 172.257812 190.105469 167.238281 184.960938 164.867188 178.925781 C 162.390625 172.621094 159.253906 166.574219 156.402344 160.410156 C 153.441406 154.003906 150.453125 147.605469 147.527344 141.179688 C 144.878906 135.359375 142.304688 129.503906 139.695312 123.664062 C 142.140625 141.609375 164.769531 192.316406 171.898438 197.734375 Z M 235.011719 264.65625 C 234.804688 263.300781 234.921875 261.777344 234.335938 260.609375 C 228.015625 248.003906 221.597656 235.445312 215.160156 222.894531 C 214.796875 222.1875 214.0625 221.667969 213.503906 221.0625 C 213.007812 221.351562 212.511719 221.644531 212.015625 221.933594 C 213.277344 224.636719 214.480469 227.371094 215.824219 230.035156 C 217.335938 233.03125 218.910156 236 220.570312 238.914062 C 225.429688 247.449219 230.34375 255.953125 235.238281 264.46875 C 239.4375 276.570312 246.289062 287.242188 253.34375 297.816406 C 249.886719 289.636719 245.800781 281.777344 241.449219 274.070312 C 239.589844 270.773438 237.175781 267.785156 235.011719 264.65625 Z M 294.464844 106.136719 C 296.28125 104.746094 298.101562 103.359375 299.917969 101.972656 C 299.378906 101.5 298.839844 101.03125 298.300781 100.558594 C 297.078125 102.476562 295.859375 104.394531 294.644531 106.316406 C 291.410156 109.53125 288.175781 112.75 284.941406 115.964844 C 289.296875 113.730469 293.628906 111.410156 294.464844 106.136719 Z M 223.183594 172.359375 C 226.035156 169.796875 229.164062 167.484375 231.699219 164.640625 C 253.160156 140.523438 274.375 116.1875 295.972656 92.195312 C 302.964844 84.425781 310.800781 77.40625 318.414062 70.21875 C 320.3125 68.425781 322.855469 67.316406 325.007812 65.953125 C 328.644531 69.625 326.636719 71.886719 324.640625 73.894531 C 321.042969 77.507812 317.226562 80.898438 313.582031 84.464844 C 311.460938 86.539062 309.496094 88.773438 307.914062 91.429688 C 315.195312 89.753906 318.003906 80.261719 328.742188 80.808594 C 289.535156 123.53125 255.375 168.015625 219.320312 212.269531 C 229.058594 231.738281 238.617188 250.9375 248.261719 270.101562 C 252.074219 277.683594 256.785156 284.898438 259.808594 292.773438 C 263.929688 303.507812 266.828125 314.710938 270.25 325.707031 C 266.128906 326.953125 266.128906 326.953125 256.921875 315.3125 C 255.566406 318.621094 254.710938 323.433594 249.667969 318.988281 C 249.746094 326.761719 257.152344 332.097656 254.828125 341.832031 C 250.296875 337.773438 247.050781 334.863281 243.800781 331.957031 C 243.414062 332.230469 243.023438 332.507812 242.636719 332.78125 C 243.457031 335.820312 244.273438 338.855469 245.472656 343.292969 C 242.992188 342.246094 241.113281 342.054688 240.554688 341.09375 C 239.140625 338.679688 238.226562 335.949219 237.285156 333.285156 C 227.589844 305.882812 212.578125 281.1875 198.082031 256.234375 C 196.246094 253.078125 194.410156 249.925781 191.902344 245.617188 C 189.3125 249.011719 187.164062 251.78125 185.066406 254.589844 C 167.632812 277.925781 150.292969 301.335938 132.738281 324.582031 C 124.382812 335.644531 115.671875 346.441406 106.984375 357.25 C 105.683594 358.867188 103.636719 359.890625 101.691406 361.375 C 97.121094 355.558594 104.085938 352.492188 103.839844 346.980469 C 97.699219 350.917969 96.421875 360.914062 86.429688 359.226562 C 88.277344 355.484375 89.835938 352.324219 91.464844 349.027344 C 88.28125 348.886719 85.441406 348.761719 82.148438 348.617188 C 79.386719 350.570312 78.683594 356.527344 71.257812 355.496094 C 74.324219 350.984375 76.621094 347.601562 78.925781 344.222656 C 80.898438 341.324219 82.289062 338.90625 82.050781 334.601562 C 81.789062 329.804688 84.882812 324.363281 87.675781 319.9375 C 95.066406 308.234375 103.054688 296.90625 110.859375 285.46875 C 125.332031 264.257812 139.820312 243.0625 154.355469 221.894531 C 157.71875 216.996094 161.109375 212.089844 164.828125 207.460938 C 167.527344 204.105469 167.425781 201.191406 165.628906 197.402344 C 158.25 181.816406 150.710938 166.277344 144.136719 150.34375 C 138.757812 137.316406 134.597656 123.777344 130.050781 110.414062 C 128.605469 106.171875 128.738281 102.023438 132.933594 99.195312 C 131.800781 95.128906 131.21875 91.109375 129.582031 87.578125 C 126.398438 80.703125 127.996094 75.589844 134.226562 71.523438 C 139.886719 71.296875 137.402344 77.253906 140.332031 79.734375 C 141.894531 79.351562 143.695312 78.90625 146.304688 78.265625 C 150.589844 90.695312 154.824219 102.980469 159.058594 115.261719 C 159.671875 115.09375 160.28125 114.925781 160.890625 114.757812 C 160.753906 113.277344 160.882812 111.710938 160.429688 110.335938 C 158.226562 103.625 155.617188 97.035156 153.664062 90.257812 C 152.773438 87.152344 153.445312 83.621094 152.71875 80.4375 C 151.542969 75.285156 149.992188 70.191406 148.222656 65.203125 C 147.09375 62.015625 145.300781 59.066406 148.828125 55.128906 C 153.167969 59.632812 152.851562 65.621094 154.796875 70.558594 C 156.867188 75.820312 158.449219 81.269531 160.285156 86.621094 C 162.101562 91.90625 163.96875 97.171875 167.375 101.996094 C 166.074219 97.210938 164.679688 92.453125 163.503906 87.636719 C 162.40625 83.128906 158.933594 78.460938 164.667969 72.746094 C 170.929688 87.875 175.558594 102.535156 181.175781 116.796875 C 186.765625 130.972656 192.382812 145.132812 198.558594 160.753906 C 201.832031 157.011719 204.34375 154.457031 206.496094 151.628906 C 232.101562 118.050781 258.902344 85.464844 287.605469 54.492188 C 292.5625 49.144531 298.71875 44.890625 304.460938 40.308594 C 305.582031 39.410156 307.347656 39.320312 309.566406 38.625 C 309.585938 46.921875 301.382812 49.820312 300.054688 56.433594 C 303.585938 60.574219 308.015625 62.035156 314.054688 60.351562 C 313.550781 62.371094 313.617188 63.625 313.019531 64.269531 C 305.371094 72.582031 297.382812 80.589844 289.972656 89.109375 C 281.4375 98.921875 273.328125 109.105469 265.152344 119.226562 C 251.636719 135.960938 238.199219 152.761719 224.773438 169.570312 C 224.105469 170.40625 223.832031 171.554688 223.378906 172.566406 C 222.175781 173.847656 220.964844 175.121094 219.757812 176.398438 C 220.195312 176.714844 220.632812 177.03125 221.070312 177.347656 C 221.773438 175.683594 222.480469 174.023438 223.183594 172.359375" fill="inherit"/></g></svg>